<svg xmlns="http://www.w3.org/2000/svg" version="1.1" xmlns:xlink="http://www.w3.org/1999/xlink" xmlns:svgjs="http://svgjs.com/svgjs" width="1000" height="1000"><rect width="1000" height="1000" rx="200" ry="200" fill="#ffffff"></rect><g transform="matrix(0.6493506493506493,0,0,0.6493506493506493,45.05188800762227,53.832445020799526)"><svg xmlns="http://www.w3.org/2000/svg" version="1.1" xmlns:xlink="http://www.w3.org/1999/xlink" xmlns:svgjs="http://svgjs.com/svgjs" width="1386" height="1386"><svg width="1386" height="1386" xml:space="preserve" overflow="hidden" version="1.1" id="svg112" sodipodi:docname="colored_ohne.svg" inkscape:version="1.2.2 (b0a8486541, 2022-12-01)" xmlns:inkscape="http://www.inkscape.org/namespaces/inkscape" xmlns:sodipodi="http://sodipodi.sourceforge.net/DTD/sodipodi-0.dtd" xmlns="http://www.w3.org/2000/svg" xmlns:svg="http://www.w3.org/2000/svg"><sodipodi:namedview id="namedview114" pagecolor="#ffffff" bordercolor="#666666" borderopacity="1.0" inkscape:showpageshadow="2" inkscape:pageopacity="0.0" inkscape:pagecheckerboard="0" inkscape:deskcolor="#d1d1d1" showgrid="false" inkscape:zoom="0.64840897" inkscape:cx="1917.7711" inkscape:cy="693.23532" inkscape:window-width="3832" inkscape:window-height="2075" inkscape:window-x="3840" inkscape:window-y="155" inkscape:window-maximized="1" inkscape:current-layer="svg112"></sodipodi:namedview><defs id="defs78"><clipPath id="clip0"><rect x="400" y="559" width="3834" height="1386" id="rect75"></rect></clipPath></defs><g clip-path="url(#clip0)" transform="translate(-172.04419,-525.57044)" id="g110"><path d="m 795,1268 c 0,-77.87 63.128,-141 141,-141 77.87,0 141,63.13 141,141 0,77.87 -63.13,141 -141,141 -77.872,0 -141,-63.13 -141,-141 z" stroke="#002060" stroke-width="45.8333" stroke-miterlimit="8" fill="none" fill-rule="evenodd" id="path80"></path><path d="M 458,845 C 458,731.229 550.005,639 663.5,639 776.995,639 869,731.229 869,845 869,958.771 776.995,1051 663.5,1051 550.005,1051 458,958.771 458,845 Z" stroke="#4472c4" stroke-width="45.8333" stroke-miterlimit="8" fill="none" fill-rule="evenodd" id="path82"></path><path d="m 1050,885.5 c 0,-56.057 45.44,-101.5 101.5,-101.5 56.06,0 101.5,45.443 101.5,101.5 0,56.057 -45.44,101.5 -101.5,101.5 -56.06,0 -101.5,-45.443 -101.5,-101.5 z" stroke="#7030a0" stroke-width="45.8333" stroke-miterlimit="8" fill="none" fill-rule="evenodd" id="path84"></path><path d="M 401,1669.63 C 401,1594.17 462.171,1533 537.629,1533 h 626.741 c 75.46,0 136.63,61.17 136.63,136.63 v 13.74 c 0,75.46 -61.17,136.63 -136.63,136.63 H 537.629 C 462.171,1820 401,1758.83 401,1683.37 Z" fill-rule="evenodd" id="path86"></path><path d="m 1260.07,1290.74 c 8.34,-9.94 23.15,-11.24 33.09,-2.9 v 0 c 9.94,8.34 11.24,23.16 2.9,33.1 l -204.02,243.14 c -8.34,9.93 -23.16,11.23 -33.09,2.89 v 0 c -9.94,-8.34 -11.24,-23.15 -2.9,-33.09 z" fill-rule="evenodd" id="path88"></path><path d="M 0,23.4895 C 0,10.5166 10.5166,0 23.4896,0 V 0 C 36.4625,0 46.9792,10.5166 46.9792,23.4895 V 340.885 c 0,12.973 -10.5167,23.49 -23.4896,23.49 v 0 C 10.5166,364.375 0,353.858 0,340.885 Z" fill-rule="evenodd" transform="matrix(-0.766044,0.642788,0.642788,0.766044,426.696,1272.74)" id="path90"></path><path d="m 609,1636.5 c 0,-25.13 20.371,-45.5 45.5,-45.5 25.129,0 45.5,20.37 45.5,45.5 0,25.13 -20.371,45.5 -45.5,45.5 -25.129,0 -45.5,-20.37 -45.5,-45.5 z" fill="#ffffff" fill-rule="evenodd" id="path92"></path><path d="m 998,1636.5 c 0,-25.13 20.37,-45.5 45.5,-45.5 25.13,0 45.5,20.37 45.5,45.5 0,25.13 -20.37,45.5 -45.5,45.5 -25.13,0 -45.5,-20.37 -45.5,-45.5 z" fill="#ffffff" fill-rule="evenodd" id="path94"></path><path d="m 922.347,1721.69 c -22.323,21.14 -72.362,28.57 -111.766,16.59 -13.214,-4.01 -24.089,-9.92 -31.414,-17.06" stroke="#ffffff" stroke-width="24.0625" stroke-linecap="round" stroke-linejoin="round" stroke-miterlimit="10" fill="none" fill-rule="evenodd" id="path96"></path><path d="m 623,1622.5 c 0,-10.77 8.507,-19.5 19,-19.5 10.493,0 19,8.73 19,19.5 0,10.77 -8.507,19.5 -19,19.5 -10.493,0 -19,-8.73 -19,-19.5 z" fill-rule="evenodd" id="path98"></path><path d="m 1011,1621.5 c 0,-10.77 8.73,-19.5 19.5,-19.5 10.77,0 19.5,8.73 19.5,19.5 0,10.77 -8.73,19.5 -19.5,19.5 -10.77,0 -19.5,-8.73 -19.5,-19.5 z" fill-rule="evenodd" id="path100"></path><text font-family="'Neo Sans', 'Neo Sans_MSFontService', sans-serif" font-weight="400" font-size="330px" transform="translate(1670.08,1675)" id="text104" svgjs:data="{&quot;leading&quot;:&quot;1.3&quot;}"></text><text font-family="'Neo Sans', 'Neo Sans_MSFontService', sans-serif" font-weight="400" font-size="330px" transform="translate(3297.73,1675)" id="text106" svgjs:data="{&quot;leading&quot;:&quot;1.3&quot;}"></text><text font-family="'Neo Sans', 'Neo Sans_MSFontService', sans-serif" font-weight="400" font-size="330px" transform="translate(3407.73,1675)" id="text108" svgjs:data="{&quot;leading&quot;:&quot;1.3&quot;}"></text></g></svg></svg></g></svg>