<?xml version="1.0" standalone="no"?>
<!DOCTYPE svg PUBLIC "-//W3C//DTD SVG 20010904//EN"
 "http://www.w3.org/TR/2001/REC-SVG-20010904/DTD/svg10.dtd">
<svg version="1.0" xmlns="http://www.w3.org/2000/svg"
 width="700.000000pt" height="700.000000pt" viewBox="0 0 700.000000 700.000000"
 preserveAspectRatio="xMidYMid meet">
<metadata>
Created by potrace 1.14, written by Peter Selinger 2001-2017
</metadata>
<g transform="translate(0.000000,700.000000) scale(0.100000,-0.100000)"
fill="#000000" stroke="none">
<path d="M2332 6529 c-349 -45 -666 -258 -846 -568 -251 -433 -188 -990 154
-1354 204 -218 455 -342 742 -366 340 -28 669 91 908 329 172 171 283 384 325
624 28 165 15 366 -35 537 -29 97 -109 254 -177 344 -250 333 -660 508 -1071
454z m313 -230 c120 -20 255 -74 355 -142 66 -45 186 -163 236 -234 61 -84
119 -213 146 -319 28 -112 30 -313 5 -416 -83 -342 -319 -593 -654 -695 -80
-24 -103 -26 -248 -27 -188 0 -264 17 -410 89 -234 116 -413 331 -485 585 -28
96 -38 290 -21 396 67 415 415 740 826 773 93 7 166 4 250 -10z"/>
<path d="M4841 5800 c-141 -30 -249 -88 -342 -183 -382 -392 -104 -1057 443
-1057 110 0 174 13 267 56 155 71 267 196 329 363 30 83 40 231 22 323 -44
227 -217 416 -440 482 -67 20 -219 29 -279 16z m274 -258 c196 -92 282 -328
192 -526 -72 -157 -259 -257 -423 -227 -207 38 -343 209 -332 416 9 166 115
302 278 357 84 28 199 20 285 -20z"/>
<path d="M3745 4069 c-334 -48 -605 -293 -691 -624 -25 -96 -25 -294 0 -390
105 -406 491 -675 898 -625 195 23 343 95 484 235 167 166 246 352 246 585 0
235 -86 436 -256 597 -185 176 -434 257 -681 222z m276 -245 c201 -59 362
-225 414 -424 32 -124 16 -299 -37 -404 -109 -217 -306 -340 -543 -339 -82 0
-115 5 -180 27 -155 53 -280 160 -349 301 -86 173 -86 354 0 533 71 148 238
280 394 311 30 6 64 13 75 15 35 8 171 -4 226 -20z"/>
<path d="M1220 3162 c-50 -24 -76 -81 -61 -130 7 -25 159 -213 464 -577 l454
-540 -186 -6 c-156 -5 -196 -10 -251 -29 -191 -66 -321 -178 -410 -352 -58
-116 -73 -199 -68 -376 4 -125 9 -158 31 -220 38 -108 82 -177 173 -268 63
-64 98 -90 165 -123 170 -83 1 -76 1858 -79 1779 -3 1738 -4 1874 48 83 31
197 111 262 183 68 75 140 214 160 312 22 104 19 284 -5 381 -33 132 -82 216
-185 319 -68 68 -108 100 -165 128 -118 59 -165 69 -367 76 l-183 6 201 238
c713 849 719 856 719 898 0 56 -25 98 -67 116 -44 18 -92 11 -124 -20 -13 -12
-253 -296 -533 -630 l-509 -607 -1038 0 -1038 0 -517 616 c-285 339 -531 625
-548 635 -38 23 -61 24 -106 1z m1280 -1552 c112 -31 184 -153 159 -269 -36
-170 -243 -238 -371 -123 -53 48 -78 102 -78 172 0 152 143 261 290 220z
m2008 -19 c137 -70 163 -251 52 -361 -70 -71 -163 -89 -250 -49 -92 41 -134
107 -135 209 0 53 5 73 28 112 63 108 193 146 305 89z m-1380 -601 c77 -52
146 -72 267 -77 155 -7 238 14 367 95 34 21 74 5 84 -34 9 -36 -2 -52 -67 -96
-82 -56 -172 -80 -319 -85 -147 -6 -236 10 -332 57 -108 53 -146 111 -102 154
23 23 54 19 102 -14z"/>
<path d="M2328 1544 c-104 -56 -26 -219 83 -174 72 30 77 140 8 176 -35 18
-57 17 -91 -2z"/>
<path d="M4269 1531 c-21 -22 -29 -39 -29 -66 0 -27 8 -44 29 -66 39 -38 87
-39 130 -3 26 21 31 33 31 68 0 88 -98 129 -161 67z"/>
</g>
</svg>
